<mxfile host="app.diagrams.net" agent="Mozilla/5.0 (Windows NT 10.0; Win64; x64) AppleWebKit/537.36 (KHTML, like Gecko) Chrome/128.0.0.0 Safari/537.36 OPR/114.0.0.0" version="24.8.3">
  <diagram id="C5RBs43oDa-KdzZeNtuy" name="Page-1">
    <mxGraphModel dx="2207" dy="1950" grid="1" gridSize="10" guides="1" tooltips="1" connect="1" arrows="1" fold="1" page="1" pageScale="1" pageWidth="827" pageHeight="1169" math="0" shadow="0">
      <root>
        <mxCell id="WIyWlLk6GJQsqaUBKTNV-0" />
        <mxCell id="WIyWlLk6GJQsqaUBKTNV-1" parent="WIyWlLk6GJQsqaUBKTNV-0" />
        <mxCell id="k6UAwfuwTvcmaYs5lRMS-34" style="edgeStyle=orthogonalEdgeStyle;rounded=0;orthogonalLoop=1;jettySize=auto;html=1;" parent="WIyWlLk6GJQsqaUBKTNV-1" source="k6UAwfuwTvcmaYs5lRMS-0" edge="1">
          <mxGeometry relative="1" as="geometry">
            <mxPoint x="150" y="20" as="targetPoint" />
          </mxGeometry>
        </mxCell>
        <mxCell id="k6UAwfuwTvcmaYs5lRMS-0" value="INÍCIO&lt;div&gt;(CADASTRO)&lt;/div&gt;" style="ellipse;whiteSpace=wrap;html=1;fillColor=#dae8fc;strokeColor=#6c8ebf;" parent="WIyWlLk6GJQsqaUBKTNV-1" vertex="1">
          <mxGeometry x="-40" y="-40" width="140" height="120" as="geometry" />
        </mxCell>
        <mxCell id="k6UAwfuwTvcmaYs5lRMS-57" style="edgeStyle=orthogonalEdgeStyle;rounded=0;orthogonalLoop=1;jettySize=auto;html=1;" parent="WIyWlLk6GJQsqaUBKTNV-1" source="k6UAwfuwTvcmaYs5lRMS-3" edge="1">
          <mxGeometry relative="1" as="geometry">
            <mxPoint x="580" y="560" as="targetPoint" />
          </mxGeometry>
        </mxCell>
        <mxCell id="k6UAwfuwTvcmaYs5lRMS-3" value="nome completo" style="whiteSpace=wrap;html=1;aspect=fixed;fillColor=#f8cecc;strokeColor=#b85450;" parent="WIyWlLk6GJQsqaUBKTNV-1" vertex="1">
          <mxGeometry x="320" y="630" width="80" height="80" as="geometry" />
        </mxCell>
        <mxCell id="k6UAwfuwTvcmaYs5lRMS-54" style="edgeStyle=orthogonalEdgeStyle;rounded=0;orthogonalLoop=1;jettySize=auto;html=1;" parent="WIyWlLk6GJQsqaUBKTNV-1" source="k6UAwfuwTvcmaYs5lRMS-5" edge="1">
          <mxGeometry relative="1" as="geometry">
            <mxPoint x="360" y="340" as="targetPoint" />
          </mxGeometry>
        </mxCell>
        <mxCell id="k6UAwfuwTvcmaYs5lRMS-5" value="usuario" style="whiteSpace=wrap;html=1;aspect=fixed;fillColor=#f8cecc;strokeColor=#b85450;" parent="WIyWlLk6GJQsqaUBKTNV-1" vertex="1">
          <mxGeometry x="320" y="230" width="80" height="80" as="geometry" />
        </mxCell>
        <mxCell id="k6UAwfuwTvcmaYs5lRMS-55" style="edgeStyle=orthogonalEdgeStyle;rounded=0;orthogonalLoop=1;jettySize=auto;html=1;entryX=0.5;entryY=0;entryDx=0;entryDy=0;" parent="WIyWlLk6GJQsqaUBKTNV-1" source="k6UAwfuwTvcmaYs5lRMS-7" target="k6UAwfuwTvcmaYs5lRMS-9" edge="1">
          <mxGeometry relative="1" as="geometry" />
        </mxCell>
        <mxCell id="k6UAwfuwTvcmaYs5lRMS-7" value="senha" style="whiteSpace=wrap;html=1;aspect=fixed;fillColor=#f8cecc;strokeColor=#b85450;" parent="WIyWlLk6GJQsqaUBKTNV-1" vertex="1">
          <mxGeometry x="320" y="350" width="80" height="80" as="geometry" />
        </mxCell>
        <mxCell id="k6UAwfuwTvcmaYs5lRMS-56" style="edgeStyle=orthogonalEdgeStyle;rounded=0;orthogonalLoop=1;jettySize=auto;html=1;" parent="WIyWlLk6GJQsqaUBKTNV-1" source="k6UAwfuwTvcmaYs5lRMS-9" edge="1">
          <mxGeometry relative="1" as="geometry">
            <mxPoint x="360" y="590" as="targetPoint" />
          </mxGeometry>
        </mxCell>
        <mxCell id="k6UAwfuwTvcmaYs5lRMS-9" value="turma" style="whiteSpace=wrap;html=1;aspect=fixed;fillColor=#f8cecc;strokeColor=#b85450;" parent="WIyWlLk6GJQsqaUBKTNV-1" vertex="1">
          <mxGeometry x="320" y="470" width="80" height="80" as="geometry" />
        </mxCell>
        <mxCell id="k6UAwfuwTvcmaYs5lRMS-46" style="edgeStyle=orthogonalEdgeStyle;rounded=0;orthogonalLoop=1;jettySize=auto;html=1;" parent="WIyWlLk6GJQsqaUBKTNV-1" source="k6UAwfuwTvcmaYs5lRMS-13" edge="1">
          <mxGeometry relative="1" as="geometry">
            <mxPoint x="580" y="450" as="targetPoint" />
          </mxGeometry>
        </mxCell>
        <mxCell id="k6UAwfuwTvcmaYs5lRMS-13" value="verificar se o usuario existe, senha deve ter entre 6 a 10 caracterres sendo no minimo 1 numerico 1 uma letra" style="rounded=0;whiteSpace=wrap;html=1;fillColor=#d5e8d4;strokeColor=#82b366;" parent="WIyWlLk6GJQsqaUBKTNV-1" vertex="1">
          <mxGeometry x="490" y="480" width="180" height="70" as="geometry" />
        </mxCell>
        <mxCell id="k6UAwfuwTvcmaYs5lRMS-21" value="usario ja cadastrado ou senha fraca" style="rounded=0;whiteSpace=wrap;html=1;fillColor=#d5e8d4;strokeColor=#82b366;" parent="WIyWlLk6GJQsqaUBKTNV-1" vertex="1">
          <mxGeometry x="520" y="180" width="120" height="60" as="geometry" />
        </mxCell>
        <mxCell id="k6UAwfuwTvcmaYs5lRMS-48" style="edgeStyle=orthogonalEdgeStyle;rounded=0;orthogonalLoop=1;jettySize=auto;html=1;" parent="WIyWlLk6GJQsqaUBKTNV-1" source="k6UAwfuwTvcmaYs5lRMS-25" edge="1">
          <mxGeometry relative="1" as="geometry">
            <mxPoint x="580" y="250" as="targetPoint" />
          </mxGeometry>
        </mxCell>
        <mxCell id="k6UAwfuwTvcmaYs5lRMS-50" style="edgeStyle=orthogonalEdgeStyle;rounded=0;orthogonalLoop=1;jettySize=auto;html=1;exitX=1;exitY=0.5;exitDx=0;exitDy=0;" parent="WIyWlLk6GJQsqaUBKTNV-1" source="k6UAwfuwTvcmaYs5lRMS-25" edge="1">
          <mxGeometry relative="1" as="geometry">
            <mxPoint x="710" y="400" as="targetPoint" />
          </mxGeometry>
        </mxCell>
        <mxCell id="k6UAwfuwTvcmaYs5lRMS-25" value="validação de&lt;div&gt;dados&lt;/div&gt;" style="rhombus;whiteSpace=wrap;html=1;fillColor=#ffe6cc;strokeColor=#d79b00;" parent="WIyWlLk6GJQsqaUBKTNV-1" vertex="1">
          <mxGeometry x="535" y="350" width="90" height="100" as="geometry" />
        </mxCell>
        <mxCell id="k6UAwfuwTvcmaYs5lRMS-36" style="edgeStyle=orthogonalEdgeStyle;rounded=0;orthogonalLoop=1;jettySize=auto;html=1;entryX=0;entryY=0.5;entryDx=0;entryDy=0;" parent="WIyWlLk6GJQsqaUBKTNV-1" source="k6UAwfuwTvcmaYs5lRMS-33" target="k6UAwfuwTvcmaYs5lRMS-35" edge="1">
          <mxGeometry relative="1" as="geometry" />
        </mxCell>
        <mxCell id="k6UAwfuwTvcmaYs5lRMS-33" value="tela de login" style="rounded=0;whiteSpace=wrap;html=1;fillColor=#d5e8d4;strokeColor=#82b366;" parent="WIyWlLk6GJQsqaUBKTNV-1" vertex="1">
          <mxGeometry x="150" y="-10" width="120" height="60" as="geometry" />
        </mxCell>
        <mxCell id="k6UAwfuwTvcmaYs5lRMS-37" style="edgeStyle=orthogonalEdgeStyle;rounded=0;orthogonalLoop=1;jettySize=auto;html=1;exitX=0.5;exitY=1;exitDx=0;exitDy=0;" parent="WIyWlLk6GJQsqaUBKTNV-1" source="k6UAwfuwTvcmaYs5lRMS-35" edge="1">
          <mxGeometry relative="1" as="geometry">
            <mxPoint x="360" y="110" as="targetPoint" />
          </mxGeometry>
        </mxCell>
        <mxCell id="k6UAwfuwTvcmaYs5lRMS-38" style="edgeStyle=orthogonalEdgeStyle;rounded=0;orthogonalLoop=1;jettySize=auto;html=1;exitX=0.5;exitY=0;exitDx=0;exitDy=0;" parent="WIyWlLk6GJQsqaUBKTNV-1" source="k6UAwfuwTvcmaYs5lRMS-35" edge="1">
          <mxGeometry relative="1" as="geometry">
            <mxPoint x="360" y="-60" as="targetPoint" />
          </mxGeometry>
        </mxCell>
        <mxCell id="k6UAwfuwTvcmaYs5lRMS-35" value="tem conta?" style="rhombus;whiteSpace=wrap;html=1;fillColor=#ffe6cc;strokeColor=#d79b00;" parent="WIyWlLk6GJQsqaUBKTNV-1" vertex="1">
          <mxGeometry x="320" y="-20" width="80" height="80" as="geometry" />
        </mxCell>
        <mxCell id="k6UAwfuwTvcmaYs5lRMS-39" value="sim" style="text;html=1;align=center;verticalAlign=middle;resizable=0;points=[];autosize=1;strokeColor=none;fillColor=none;" parent="WIyWlLk6GJQsqaUBKTNV-1" vertex="1">
          <mxGeometry x="374" y="-50" width="40" height="30" as="geometry" />
        </mxCell>
        <mxCell id="k6UAwfuwTvcmaYs5lRMS-41" value="não" style="text;html=1;align=center;verticalAlign=middle;resizable=0;points=[];autosize=1;strokeColor=none;fillColor=none;" parent="WIyWlLk6GJQsqaUBKTNV-1" vertex="1">
          <mxGeometry x="370" y="58" width="40" height="30" as="geometry" />
        </mxCell>
        <mxCell id="k6UAwfuwTvcmaYs5lRMS-44" style="edgeStyle=orthogonalEdgeStyle;rounded=0;orthogonalLoop=1;jettySize=auto;html=1;" parent="WIyWlLk6GJQsqaUBKTNV-1" source="k6UAwfuwTvcmaYs5lRMS-42" edge="1">
          <mxGeometry relative="1" as="geometry">
            <mxPoint x="360" y="220" as="targetPoint" />
          </mxGeometry>
        </mxCell>
        <mxCell id="k6UAwfuwTvcmaYs5lRMS-42" value="criar conta" style="whiteSpace=wrap;html=1;aspect=fixed;fillColor=#dae8fc;strokeColor=#6c8ebf;" parent="WIyWlLk6GJQsqaUBKTNV-1" vertex="1">
          <mxGeometry x="320" y="110" width="80" height="80" as="geometry" />
        </mxCell>
        <mxCell id="k6UAwfuwTvcmaYs5lRMS-43" value="acessar o sistema" style="whiteSpace=wrap;html=1;fillColor=#fff2cc;strokeColor=#d6b656;" parent="WIyWlLk6GJQsqaUBKTNV-1" vertex="1">
          <mxGeometry x="320" y="-140" width="80" height="70" as="geometry" />
        </mxCell>
        <mxCell id="k6UAwfuwTvcmaYs5lRMS-51" value="sim" style="text;html=1;align=center;verticalAlign=middle;resizable=0;points=[];autosize=1;strokeColor=none;fillColor=none;" parent="WIyWlLk6GJQsqaUBKTNV-1" vertex="1">
          <mxGeometry x="630" y="368" width="40" height="30" as="geometry" />
        </mxCell>
        <mxCell id="k6UAwfuwTvcmaYs5lRMS-52" value="nao" style="text;html=1;align=center;verticalAlign=middle;resizable=0;points=[];autosize=1;strokeColor=none;fillColor=none;" parent="WIyWlLk6GJQsqaUBKTNV-1" vertex="1">
          <mxGeometry x="580" y="298" width="40" height="30" as="geometry" />
        </mxCell>
        <mxCell id="k6UAwfuwTvcmaYs5lRMS-53" value="informar o usuario que o cadstro foi realizado" style="rounded=0;whiteSpace=wrap;html=1;fillColor=#d5e8d4;strokeColor=#82b366;" parent="WIyWlLk6GJQsqaUBKTNV-1" vertex="1">
          <mxGeometry x="710" y="368" width="120" height="60" as="geometry" />
        </mxCell>
      </root>
    </mxGraphModel>
  </diagram>
</mxfile>
